<svg width="553" height="156" viewBox="0 0 553 156" fill="none" xmlns="http://www.w3.org/2000/svg">
<path d="M36.224 124.896C28.7147 124.896 22.912 122.976 18.816 119.136C14.72 115.211 12.672 109.451 12.672 101.856V40.544H28.672V101.472C28.672 104.715 29.4827 107.232 31.104 109.024C32.8107 110.816 35.1573 111.712 38.144 111.712C41.728 111.712 44.7147 110.773 47.104 108.896L51.584 120.288C49.7067 121.824 47.4027 122.976 44.672 123.744C41.9413 124.512 39.1253 124.896 36.224 124.896ZM1.408 68.96V56.16H46.976V68.96H1.408ZM88.224 124.896C80.6293 124.896 73.9733 123.403 68.256 120.416C62.624 117.344 58.2293 113.163 55.072 107.872C52 102.581 50.464 96.5653 50.464 89.824C50.464 82.9973 51.9573 76.9813 54.944 71.776C58.016 66.4853 62.1973 62.3467 67.488 59.36C72.864 56.3733 78.9653 54.88 85.792 54.88C92.448 54.88 98.3787 56.3307 103.584 59.232C108.789 62.1333 112.885 66.2293 115.872 71.52C118.859 76.8107 120.352 83.04 120.352 90.208C120.352 90.8907 120.309 91.6587 120.224 92.512C120.224 93.3653 120.181 94.176 120.096 94.944H63.136V84.32H111.648L105.376 87.648C105.461 83.7227 104.651 80.2667 102.944 77.28C101.237 74.2933 98.8907 71.9467 95.904 70.24C93.0027 68.5333 89.632 67.68 85.792 67.68C81.8667 67.68 78.4107 68.5333 75.424 70.24C72.5227 71.9467 70.2187 74.336 68.512 77.408C66.8907 80.3947 66.08 83.936 66.08 88.032V90.592C66.08 94.688 67.0187 98.3147 68.896 101.472C70.7733 104.629 73.4187 107.061 76.832 108.768C80.2453 110.475 84.1707 111.328 88.608 111.328C92.448 111.328 95.904 110.731 98.976 109.536C102.048 108.341 104.779 106.464 107.168 103.904L115.744 113.76C112.672 117.344 108.789 120.117 104.096 122.08C99.488 123.957 94.1973 124.896 88.224 124.896ZM129.321 124V55.648H144.553V74.464L142.761 68.96C144.809 64.352 148.009 60.8533 152.361 58.464C156.798 56.0747 162.302 54.88 168.873 54.88V70.112C168.19 69.9413 167.55 69.856 166.953 69.856C166.356 69.7707 165.758 69.728 165.161 69.728C159.102 69.728 154.281 71.52 150.697 75.104C147.113 78.6027 145.321 83.8507 145.321 90.848V124H129.321ZM262.318 54.88C267.779 54.88 272.601 55.9467 276.782 58.08C281.049 60.2133 284.377 63.4987 286.766 67.936C289.155 72.288 290.35 77.92 290.35 84.832V124H274.35V86.88C274.35 80.8213 273.027 76.2987 270.382 73.312C267.737 70.3253 263.939 68.832 258.99 68.832C255.491 68.832 252.377 69.6 249.646 71.136C247.001 72.672 244.91 74.9333 243.374 77.92C241.923 80.9067 241.198 84.704 241.198 89.312V124H225.198V86.88C225.198 80.8213 223.875 76.2987 221.23 73.312C218.585 70.3253 214.787 68.832 209.838 68.832C206.339 68.832 203.225 69.6 200.494 71.136C197.849 72.672 195.758 74.9333 194.222 77.92C192.771 80.9067 192.046 84.704 192.046 89.312V124H176.046V55.648H191.278V73.824L188.59 68.448C190.894 64.0107 194.222 60.64 198.574 58.336C203.011 56.032 208.046 54.88 213.678 54.88C220.078 54.88 225.625 56.4587 230.318 59.616C235.097 62.7733 238.254 67.552 239.79 73.952L233.518 71.776C235.737 66.656 239.406 62.56 244.526 59.488C249.646 56.416 255.577 54.88 262.318 54.88ZM304.396 124V55.648H320.396V124H304.396ZM312.46 44.384C309.473 44.384 306.999 43.4453 305.036 41.568C303.159 39.6907 302.22 37.4293 302.22 34.784C302.22 32.0533 303.159 29.792 305.036 28C306.999 26.1227 309.473 25.184 312.46 25.184C315.447 25.184 317.879 26.08 319.756 27.872C321.719 29.5787 322.7 31.7547 322.7 34.4C322.7 37.216 321.761 39.6053 319.884 41.568C318.007 43.4453 315.532 44.384 312.46 44.384ZM373.78 54.88C379.241 54.88 384.105 55.9467 388.372 58.08C392.724 60.2133 396.137 63.4987 398.612 67.936C401.087 72.288 402.324 77.92 402.324 84.832V124H386.324V86.88C386.324 80.8213 384.873 76.2987 381.972 73.312C379.156 70.3253 375.188 68.832 370.068 68.832C366.313 68.832 362.985 69.6 360.084 71.136C357.183 72.672 354.921 74.976 353.3 78.048C351.764 81.0347 350.996 84.832 350.996 89.44V124H334.996V55.648H350.228V74.08L347.54 68.448C349.929 64.096 353.385 60.768 357.908 58.464C362.516 56.0747 367.807 54.88 373.78 54.88ZM447.706 124.896C440.538 124.896 434.138 123.403 428.506 120.416C422.959 117.344 418.607 113.163 415.45 107.872C412.293 102.581 410.714 96.5653 410.714 89.824C410.714 82.9973 412.293 76.9813 415.45 71.776C418.607 66.4853 422.959 62.3467 428.506 59.36C434.138 56.3733 440.538 54.88 447.706 54.88C454.362 54.88 460.207 56.2453 465.242 58.976C470.362 61.6213 474.245 65.5467 476.89 70.752L464.602 77.92C462.554 74.6773 460.037 72.288 457.05 70.752C454.149 69.216 450.991 68.448 447.578 68.448C443.653 68.448 440.111 69.3013 436.954 71.008C433.797 72.7147 431.322 75.1893 429.53 78.432C427.738 81.5893 426.842 85.3867 426.842 89.824C426.842 94.2613 427.738 98.1013 429.53 101.344C431.322 104.501 433.797 106.933 436.954 108.64C440.111 110.347 443.653 111.2 447.578 111.2C450.991 111.2 454.149 110.432 457.05 108.896C460.037 107.36 462.554 104.971 464.602 101.728L476.89 108.896C474.245 114.016 470.362 117.984 465.242 120.8C460.207 123.531 454.362 124.896 447.706 124.896ZM437.85 46.304L420.698 28.768H433.882L451.29 43.36H439.002L456.41 28.768H469.594L452.442 46.304H437.85ZM515.449 124.896C507.854 124.896 501.198 123.403 495.481 120.416C489.849 117.344 485.454 113.163 482.297 107.872C479.225 102.581 477.689 96.5653 477.689 89.824C477.689 82.9973 479.182 76.9813 482.169 71.776C485.241 66.4853 489.422 62.3467 494.713 59.36C500.089 56.3733 506.19 54.88 513.017 54.88C519.673 54.88 525.604 56.3307 530.809 59.232C536.014 62.1333 540.11 66.2293 543.097 71.52C546.084 76.8107 547.577 83.04 547.577 90.208C547.577 90.8907 547.534 91.6587 547.449 92.512C547.449 93.3653 547.406 94.176 547.321 94.944H490.361V84.32H538.873L532.601 87.648C532.686 83.7227 531.876 80.2667 530.169 77.28C528.462 74.2933 526.116 71.9467 523.129 70.24C520.228 68.5333 516.857 67.68 513.017 67.68C509.092 67.68 505.636 68.5333 502.649 70.24C499.748 71.9467 497.444 74.336 495.737 77.408C494.116 80.3947 493.305 83.936 493.305 88.032V90.592C493.305 94.688 494.244 98.3147 496.121 101.472C497.998 104.629 500.644 107.061 504.057 108.768C507.47 110.475 511.396 111.328 515.833 111.328C519.673 111.328 523.129 110.731 526.201 109.536C529.273 108.341 532.004 106.464 534.393 103.904L542.969 113.76C539.897 117.344 536.014 120.117 531.321 122.08C526.713 123.957 521.422 124.896 515.449 124.896Z" fill="#00BFB2"/>
<path d="M36.224 124.896C28.7147 124.896 22.912 122.976 18.816 119.136C14.72 115.211 12.672 109.451 12.672 101.856V40.544H28.672V101.472C28.672 104.715 29.4827 107.232 31.104 109.024C32.8107 110.816 35.1573 111.712 38.144 111.712C41.728 111.712 44.7147 110.773 47.104 108.896L51.584 120.288C49.7067 121.824 47.4027 122.976 44.672 123.744C41.9413 124.512 39.1253 124.896 36.224 124.896ZM1.408 68.96V56.16H46.976V68.96H1.408ZM88.224 124.896C80.6293 124.896 73.9733 123.403 68.256 120.416C62.624 117.344 58.2293 113.163 55.072 107.872C52 102.581 50.464 96.5653 50.464 89.824C50.464 82.9973 51.9573 76.9813 54.944 71.776C58.016 66.4853 62.1973 62.3467 67.488 59.36C72.864 56.3733 78.9653 54.88 85.792 54.88C92.448 54.88 98.3787 56.3307 103.584 59.232C108.789 62.1333 112.885 66.2293 115.872 71.52C118.859 76.8107 120.352 83.04 120.352 90.208C120.352 90.8907 120.309 91.6587 120.224 92.512C120.224 93.3653 120.181 94.176 120.096 94.944H63.136V84.32H111.648L105.376 87.648C105.461 83.7227 104.651 80.2667 102.944 77.28C101.237 74.2933 98.8907 71.9467 95.904 70.24C93.0027 68.5333 89.632 67.68 85.792 67.68C81.8667 67.68 78.4107 68.5333 75.424 70.24C72.5227 71.9467 70.2187 74.336 68.512 77.408C66.8907 80.3947 66.08 83.936 66.08 88.032V90.592C66.08 94.688 67.0187 98.3147 68.896 101.472C70.7733 104.629 73.4187 107.061 76.832 108.768C80.2453 110.475 84.1707 111.328 88.608 111.328C92.448 111.328 95.904 110.731 98.976 109.536C102.048 108.341 104.779 106.464 107.168 103.904L115.744 113.76C112.672 117.344 108.789 120.117 104.096 122.08C99.488 123.957 94.1973 124.896 88.224 124.896ZM129.321 124V55.648H144.553V74.464L142.761 68.96C144.809 64.352 148.009 60.8533 152.361 58.464C156.798 56.0747 162.302 54.88 168.873 54.88V70.112C168.19 69.9413 167.55 69.856 166.953 69.856C166.356 69.7707 165.758 69.728 165.161 69.728C159.102 69.728 154.281 71.52 150.697 75.104C147.113 78.6027 145.321 83.8507 145.321 90.848V124H129.321ZM262.318 54.88C267.779 54.88 272.601 55.9467 276.782 58.08C281.049 60.2133 284.377 63.4987 286.766 67.936C289.155 72.288 290.35 77.92 290.35 84.832V124H274.35V86.88C274.35 80.8213 273.027 76.2987 270.382 73.312C267.737 70.3253 263.939 68.832 258.99 68.832C255.491 68.832 252.377 69.6 249.646 71.136C247.001 72.672 244.91 74.9333 243.374 77.92C241.923 80.9067 241.198 84.704 241.198 89.312V124H225.198V86.88C225.198 80.8213 223.875 76.2987 221.23 73.312C218.585 70.3253 214.787 68.832 209.838 68.832C206.339 68.832 203.225 69.6 200.494 71.136C197.849 72.672 195.758 74.9333 194.222 77.92C192.771 80.9067 192.046 84.704 192.046 89.312V124H176.046V55.648H191.278V73.824L188.59 68.448C190.894 64.0107 194.222 60.64 198.574 58.336C203.011 56.032 208.046 54.88 213.678 54.88C220.078 54.88 225.625 56.4587 230.318 59.616C235.097 62.7733 238.254 67.552 239.79 73.952L233.518 71.776C235.737 66.656 239.406 62.56 244.526 59.488C249.646 56.416 255.577 54.88 262.318 54.88ZM304.396 124V55.648H320.396V124H304.396ZM373.78 54.88C379.241 54.88 384.105 55.9467 388.372 58.08C392.724 60.2133 396.137 63.4987 398.612 67.936C401.087 72.288 402.324 77.92 402.324 84.832V124H386.324V86.88C386.324 80.8213 384.873 76.2987 381.972 73.312C379.156 70.3253 375.188 68.832 370.068 68.832C366.313 68.832 362.985 69.6 360.084 71.136C357.183 72.672 354.921 74.976 353.3 78.048C351.764 81.0347 350.996 84.832 350.996 89.44V124H334.996V55.648H350.228V74.08L347.54 68.448C349.929 64.096 353.385 60.768 357.908 58.464C362.516 56.0747 367.807 54.88 373.78 54.88ZM447.706 124.896C440.538 124.896 434.138 123.403 428.506 120.416C422.959 117.344 418.607 113.163 415.45 107.872C412.293 102.581 410.714 96.5653 410.714 89.824C410.714 82.9973 412.293 76.9813 415.45 71.776C418.607 66.4853 422.959 62.3467 428.506 59.36C434.138 56.3733 440.538 54.88 447.706 54.88C454.362 54.88 460.207 56.2453 465.242 58.976C470.362 61.6213 474.245 65.5467 476.89 70.752L464.602 77.92C462.554 74.6773 460.037 72.288 457.05 70.752C454.149 69.216 450.991 68.448 447.578 68.448C443.653 68.448 440.111 69.3013 436.954 71.008C433.797 72.7147 431.322 75.1893 429.53 78.432C427.738 81.5893 426.842 85.3867 426.842 89.824C426.842 94.2613 427.738 98.1013 429.53 101.344C431.322 104.501 433.797 106.933 436.954 108.64C440.111 110.347 443.653 111.2 447.578 111.2C450.991 111.2 454.149 110.432 457.05 108.896C460.037 107.36 462.554 104.971 464.602 101.728L476.89 108.896C474.245 114.016 470.362 117.984 465.242 120.8C460.207 123.531 454.362 124.896 447.706 124.896ZM515.449 124.896C507.854 124.896 501.198 123.403 495.481 120.416C489.849 117.344 485.454 113.163 482.297 107.872C479.225 102.581 477.689 96.5653 477.689 89.824C477.689 82.9973 479.182 76.9813 482.169 71.776C485.241 66.4853 489.422 62.3467 494.713 59.36C500.089 56.3733 506.19 54.88 513.017 54.88C519.673 54.88 525.604 56.3307 530.809 59.232C536.014 62.1333 540.11 66.2293 543.097 71.52C546.084 76.8107 547.577 83.04 547.577 90.208C547.577 90.8907 547.534 91.6587 547.449 92.512C547.449 93.3653 547.406 94.176 547.321 94.944H490.361V84.32H538.873L532.601 87.648C532.686 83.7227 531.876 80.2667 530.169 77.28C528.462 74.2933 526.116 71.9467 523.129 70.24C520.228 68.5333 516.857 67.68 513.017 67.68C509.092 67.68 505.636 68.5333 502.649 70.24C499.748 71.9467 497.444 74.336 495.737 77.408C494.116 80.3947 493.305 83.936 493.305 88.032V90.592C493.305 94.688 494.244 98.3147 496.121 101.472C497.998 104.629 500.644 107.061 504.057 108.768C507.47 110.475 511.396 111.328 515.833 111.328C519.673 111.328 523.129 110.731 526.201 109.536C529.273 108.341 532.004 106.464 534.393 103.904L542.969 113.76C539.897 117.344 536.014 120.117 531.321 122.08C526.713 123.957 521.422 124.896 515.449 124.896Z" fill="#3B413C"/>
</svg>
