<svg width="108" height="108" viewBox="0 0 108 108" fill="none" xmlns="http://www.w3.org/2000/svg">
<circle cx="54" cy="54" r="54" fill="#00BFB2"/>
<path d="M41.1861 87.3708L41.192 87.3765L41.198 87.3821C44.9059 90.862 50.0629 92.5 56.449 92.5C58.954 92.5 61.3919 92.1678 63.7586 91.5015C66.1555 90.8267 68.2319 89.7987 69.9505 88.3911L70.7955 87.6989L70.3961 86.6822L66.7354 77.3635L65.9978 75.4858L64.412 76.7329C62.7693 78.0248 60.6726 78.7155 58.0179 78.7155C55.9058 78.7155 54.4187 78.0961 53.3653 76.9967C52.3722 75.8894 51.7781 74.2391 51.7781 71.8391V46.7443H65.2347H66.7347V45.2443V34.7739V33.2739H65.2347H51.7781V22V20.5H50.2781H37.2041H35.7041V22V33.2739H28H26.5V34.7739V45.2443V46.7443H28H35.7041V72.1533C35.7041 78.6306 37.4544 83.791 41.1861 87.3708Z" fill="#3B413C" stroke="#FEFCFD" stroke-width="3"/>
</svg>
