<svg width="108" height="108" viewBox="0 0 108 108" fill="none" xmlns="http://www.w3.org/2000/svg">
<circle cx="54" cy="54" r="54" fill="#00BFB2"/>
<path d="M47.1861 84.3708L47.192 84.3765L47.198 84.3821C50.9059 87.862 56.0629 89.5 62.449 89.5C64.954 89.5 67.392 89.1678 69.7586 88.5015C72.1555 87.8267 74.2319 86.7987 75.9505 85.3911L76.7956 84.6989L76.3961 83.6822L72.7354 74.3635L71.9978 72.4858L70.412 73.7329C68.7693 75.0248 66.6726 75.7155 64.0179 75.7155C61.9058 75.7155 60.4187 75.0961 59.3653 73.9967C58.3723 72.8894 57.7781 71.2391 57.7781 68.8391V43.7443H71.2347H72.7347V42.2443V31.7739V30.2739H71.2347H57.7781V19V17.5H56.2781H43.2041H41.7041V19V30.2739H34H32.5V31.7739V42.2443V43.7443H34H41.7041V69.1533C41.7041 75.6306 43.4544 80.791 47.1861 84.3708Z" fill="#3B413C" stroke="#FEFCFD" stroke-width="3"/>
</svg>
